<svg width="153" height="104" viewBox="0 0 153 104" fill="none" xmlns="http://www.w3.org/2000/svg">
<path d="M46.2256 104C73.4343 104 92.4512 82.4979 92.4512 51.9269C92.4512 21.5021 73.4343 0 46.2256 0C19.1631 0 0 21.5021 0 51.9269C0 82.4979 19.1631 104 46.2256 104ZM46.2256 81.3277C34.2303 81.3277 25.7459 69.0408 25.7459 51.9269C25.7459 34.8129 34.2303 22.6723 46.2256 22.6723C58.3671 22.6723 66.8516 34.8129 66.8516 51.9269C66.8516 69.0408 58.3671 81.3277 46.2256 81.3277Z" fill="white" fill-opacity="0.06"/>
<path d="M128.132 102.245H153V1.75528H133.105L101.216 23.1111L111.163 40.5176L128.132 29.9859V102.245Z" fill="white" fill-opacity="0.06"/>
</svg>
